<svg id="图层_1" data-name="图层 1" xmlns="http://www.w3.org/2000/svg" xmlns:xlink="http://www.w3.org/1999/xlink" viewBox="0 0 51.89 84.08"><defs><style>.cls-1,.cls-5{fill:none;}.cls-2{fill:#ffca6b;}.cls-2,.cls-3,.cls-4,.cls-5,.cls-7{stroke:#2a3244;stroke-miterlimit:10;stroke-width:3px;}.cls-3{fill:#f3596b;}.cls-4{fill:#f2cac1;}.cls-6{clip-path:url(#clip-path);}.cls-7{fill:#fff;}</style><clipPath id="clip-path" transform="translate(-23.93 -7.96)"><path class="cls-1" d="M72.87,90.54H25.68V69.25c0-6.49,3.38-8.52,9.2-10.45s27.37-1,31.06.34,8.63,3.62,8.63,10.11V88.84A1.7,1.7,0,0,1,72.87,90.54Z"/></clipPath></defs><title>2</title><path class="cls-2" d="M25.86,1.5h0A19.93,19.93,0,0,1,45.79,21.43V52.24a.7.7,0,0,1-.7.7H19.7A13.77,13.77,0,0,1,5.93,39.17V21.43A19.93,19.93,0,0,1,25.86,1.5Z"/><path class="cls-3" d="M13.25,49.54H38.63A11.75,11.75,0,0,1,50.39,61.29V80.88a1.7,1.7,0,0,1-1.7,1.7H3.2a1.7,1.7,0,0,1-1.7-1.7V61.29A11.75,11.75,0,0,1,13.25,49.54Z"/><path class="cls-4" d="M56.86,62.78c-2.54-2-1.41-15.85-1.41-15.85H44.81s1.13,13.89-1.41,15.85c-1.54,1.18,2.93,1.21,6.73,1C53.92,64,58.39,64,56.86,62.78Z" transform="translate(-23.93 -7.96)"/><circle class="cls-4" cx="39.49" cy="27.7" r="4.09"/><path class="cls-5" d="M69.63,27.57A20,20,0,0,0,49.79,9.46h0A20,20,0,0,0,29.86,29.11V46.82h1.36" transform="translate(-23.93 -7.96)"/><path class="cls-5" d="M36.42,53.4V31.22a.41.41,0,0,1,.44-.41c.59,0,1.63.11,2.27.11,7.37,0,13.68-3.1,16.24-7.48,0,0,0,0,.06,0,.82,4,4,7,7.93,7" transform="translate(-23.93 -7.96)"/><path class="cls-4" d="M55.44,23.45s0,0-.06,0c-2.56,4.38-8.87,7.48-16.24,7.48-.64,0-1.68-.07-2.27-.11a.41.41,0,0,0-.44.41v8.36a13.57,13.57,0,0,0,13.44,12h0A13.58,13.58,0,0,0,63.41,38V30.64a.18.18,0,0,0-.18-.18A8.5,8.5,0,0,1,55.44,23.45Z" transform="translate(-23.93 -7.96)"/><path class="cls-5" d="M55.38,23.44" transform="translate(-23.93 -7.96)"/><line class="cls-5" x1="14.11" y1="5.84" x2="19.05" y2="9.68"/><line class="cls-5" x1="10.87" y1="9.08" x2="15.81" y2="12.91"/><line class="cls-5" x1="9.76" y1="81.56" x2="9.76" y2="71.17"/><line class="cls-5" x1="42.13" y1="81.56" x2="42.13" y2="71.17"/><g class="cls-6"><rect class="cls-7" x="37.19" y="49.9" width="6.59" height="18.76" rx="2.5" transform="translate(-53.99 38.04) rotate(-45)"/><rect class="cls-7" x="56.47" y="49.9" width="6.59" height="18.76" rx="2.5" transform="translate(36.18 135.51) rotate(-135)"/></g></svg>